<svg width="278" height="44" viewBox="0 0 278 44" fill="none" xmlns="http://www.w3.org/2000/svg">
  <path d="M11.2 22C14.2 16.7 19.9 13 26.4 13C31 13 35.1 14.9 38.1 17.9C35.1 20.9 31 22.8 26.4 22.8C21.8 22.8 17.7 20.9 14.7 17.9C13.3 19.1 12.1 20.5 11.2 22Z" stroke="#163F98" stroke-width="3" stroke-linecap="round" stroke-linejoin="round"/>
  <circle cx="26.4" cy="18.1" r="3.4" fill="#163F98"/>
  <path d="M49 10.6H55.8V33.4C55.8 38.6 52.5 41.8 47.1 41.8H44.5V36.2H46.2C48.4 36.2 49 35.2 49 33.2V10.6Z" fill="#163F98"/>
  <path d="M72.3 34.2C65.6 34.2 60.7 29.4 60.7 22.7C60.7 16 65.6 11.2 72.3 11.2C79 11.2 83.9 16 83.9 22.7C83.9 29.4 79 34.2 72.3 34.2ZM72.3 28.5C75.2 28.5 77.2 26.2 77.2 22.7C77.2 19.2 75.2 16.9 72.3 16.9C69.4 16.9 67.4 19.2 67.4 22.7C67.4 26.2 69.4 28.5 72.3 28.5Z" fill="#163F98"/>
  <path d="M96.3 34.2C90 34.2 85.4 29.4 85.4 22.7C85.4 16 90 11.2 96.3 11.2C101.6 11.2 105.8 14.2 106.9 18.9H100.1C99.3 17.5 97.9 16.7 96.3 16.7C93.6 16.7 92.1 18.8 92.1 22.7C92.1 26.6 93.6 28.7 96.3 28.7C98 28.7 99.4 27.9 100.1 26.5H106.9C105.8 31.2 101.6 34.2 96.3 34.2Z" fill="#163F98"/>
  <path d="M108.9 3.8H115.6V15.1C117 12.6 119.4 11.2 122.6 11.2C127.6 11.2 130.9 14.6 130.9 20.1V33.4H124.2V21.4C124.2 18.6 122.7 17 120.2 17C117.7 17 115.6 18.9 115.6 22V33.4H108.9V3.8Z" fill="#163F98"/>
  <path d="M135.1 10.6H141.8V33.4H135.1V10.6ZM138.5 8.1C136.3 8.1 134.5 6.3 134.5 4.1C134.5 1.9 136.3 0.1 138.5 0.1C140.7 0.1 142.5 1.9 142.5 4.1C142.5 6.3 140.7 8.1 138.5 8.1Z" fill="#163F98"/>
  <path d="M146.9 3.8H153.6V33.4H146.9V3.8Z" fill="#163F98"/>
  <path d="M158.7 3.8H165.4V33.4H158.7V3.8Z" fill="#163F98"/>
  <path d="M170.6 10.6H177.3V33.4H170.6V10.6ZM174 8.1C171.8 8.1 170 6.3 170 4.1C170 1.9 171.8 0.1 174 0.1C176.2 0.1 178 1.9 178 4.1C178 6.3 176.2 8.1 174 8.1Z" fill="#163F98"/>
  <path d="M184.1 25.9V16.3H180.6V10.6H184.1V4.9H190.8V10.6H195.9V16.3H190.8V24.8C190.8 27.2 191.8 28.1 194 28.1H196V33.4H192.4C186.8 33.4 184.1 30.8 184.1 25.9Z" fill="#163F98"/>
  <path d="M199.2 10.6H205.9V33.4H199.2V10.6ZM202.6 8.1C200.4 8.1 198.6 6.3 198.6 4.1C198.6 1.9 200.4 0.1 202.6 0.1C204.8 0.1 206.6 1.9 206.6 4.1C206.6 6.3 204.8 8.1 202.6 8.1Z" fill="#163F98"/>
  <path d="M220.2 34.2C213.5 34.2 208.6 29.4 208.6 22.7C208.6 16 213.5 11.2 220.2 11.2C226.9 11.2 231.8 16 231.8 22.7C231.8 29.4 226.9 34.2 220.2 34.2ZM220.2 28.5C223.1 28.5 225.1 26.2 225.1 22.7C225.1 19.2 223.1 16.9 220.2 16.9C217.3 16.9 215.3 19.2 215.3 22.7C215.3 26.2 217.3 28.5 220.2 28.5Z" fill="#163F98"/>
  <path d="M234.3 10.6H241V14.1C242.4 12 244.7 11.2 247.4 11.2C252.5 11.2 255.7 14.6 255.7 20.1V33.4H249V21.4C249 18.6 247.6 17 245.1 17C242.6 17 241 18.9 241 22V33.4H234.3V10.6Z" fill="#163F98"/>
</svg>
